<svg width="316" height="232" viewBox="0 0 316 232" fill="none" xmlns="http://www.w3.org/2000/svg">
<g id="meditation">
<g id="torso">
<path id="Vector" d="M200.601 93.6073C200.601 93.6073 156.941 85.9039 128.805 95.5331L137.052 160.531L135.111 171.123L193.325 169.197L189.444 158.605L200.601 93.6073Z" fill="#A0616A"/>
<path id="Vector 2" d="M170.261 163.746C160.21 163.627 150.172 162.996 140.185 161.855C138.135 161.631 136.243 160.651 134.885 159.11C133.527 157.568 132.799 155.577 132.849 153.53L133.557 123.133L133.64 123.015C142.075 110.888 137.966 102.031 134.806 97.2627C134.139 96.2548 133.784 95.0758 133.785 93.8706C133.301 93.201 133.191 94.2607 133.492 93.5054C133.641 93.1309 133.882 92.7992 134.193 92.5406C134.504 92.282 134.876 92.1046 135.274 92.0247L140.09 91.0693C140.668 90.9545 141.268 91.0526 141.778 91.3453C142.288 91.638 142.675 92.1051 142.863 92.6594C144.482 97.4519 150.789 112.872 165.241 112.868C177.316 112.866 181.821 95.9106 182.091 91.9918C182.136 91.3849 182.409 90.8169 182.858 90.4022C183.307 89.9875 183.897 89.7564 184.51 89.7556H190.525C190.907 89.7467 191.284 89.823 191.632 89.9787C191.979 90.1345 192.286 90.3656 192.53 90.6552C192.831 91.0238 193.013 91.4724 193.054 91.9441C193.097 92.4159 192.997 92.8895 192.767 93.3045C185.901 105.832 195.935 125.655 196.037 125.853L196.101 125.978L193.27 155.149C193.1 156.859 192.392 158.475 191.248 159.766C190.103 161.057 188.58 161.96 186.892 162.347C182.514 163.369 176.599 163.746 170.261 163.746Z" fill="#CCCCCC"/>
</g>
<g id="meditatingGirl">
<path id="Vector 3" d="M163.733 80.1263C181.416 80.1263 195.75 65.8994 195.75 48.3496C195.75 30.7999 181.416 16.5731 163.733 16.5731C146.051 16.5731 131.716 30.7999 131.716 48.3496C131.716 65.8994 146.051 80.1263 163.733 80.1263Z" fill="#2F2E41"/>
<path id="Vector 4" d="M164.383 82.9335C177.543 82.9335 188.211 72.3449 188.211 59.283C188.211 46.2212 177.543 35.6325 164.383 35.6325C151.222 35.6325 140.553 46.2212 140.553 59.283C140.553 72.3449 151.222 82.9335 164.383 82.9335Z" fill="#A0616A"/>
<path id="Vector 5" d="M114.859 231.431C108.339 231.432 102.37 230.719 97.6279 229.034C91.9914 227.032 88.4517 223.795 87.1071 219.41C86.4721 217.544 86.2823 215.558 86.5528 213.608C86.8232 211.657 87.5466 209.795 88.6657 208.17C97.0045 195.776 125.942 192.284 129.825 191.868L131.882 174.856C132.126 172.893 133.075 171.083 134.556 169.759C136.036 168.434 137.949 167.685 139.942 167.648L188.677 166.892C190.634 166.846 192.542 167.5 194.055 168.733C195.568 169.966 196.585 171.698 196.92 173.612L199.689 188.73L167.732 204.107L172.564 217.536L172.249 217.745C162.895 223.934 135.998 231.43 114.859 231.431Z" fill="#2F2E41"/>
<path id="Vector 6" d="M195.265 186.53C195.265 186.53 239.895 180.752 236.984 203.863C234.074 226.973 200.116 243.343 148.695 203.863L154.516 192.308C154.516 192.308 183.622 200.011 195.265 194.233V186.53Z" fill="#2F2E41"/>
<path id="Vector 7" d="M155.486 195.196C155.486 195.196 155.486 183.641 145.784 184.604C136.082 185.567 118.618 186.53 118.618 186.53C118.618 186.53 112.796 190.382 120.559 192.308C128.32 194.233 151.605 203.863 151.605 203.863L155.486 195.196Z" fill="#A0616A"/>
<path id="Vector 8" d="M171.979 193.271C171.979 193.271 171.979 181.715 181.682 182.679C191.384 183.641 208.848 184.604 208.848 184.604C208.848 184.604 214.669 188.456 206.908 190.382C199.146 192.308 175.861 201.936 175.861 201.936L171.979 193.271Z" fill="#A0616A"/>
<path id="Vector 9" d="M140.794 44.7539C150.1 50.3922 160.592 53.8231 171.452 54.7799L168.22 50.9368C170.573 51.8003 173.049 52.2882 175.557 52.3825C176.812 52.4187 178.058 52.1623 179.195 51.6341C180.332 51.1058 181.329 50.3202 182.104 49.3406C182.738 48.3232 183.115 47.1688 183.202 45.9758C183.289 44.7828 183.084 43.5867 182.605 42.4893C181.62 40.3005 180.088 38.3983 178.152 36.9636C174.722 34.2708 170.675 32.462 166.37 31.6984C162.065 30.9348 157.637 31.2401 153.479 32.5871C150.627 33.4329 148.073 35.0589 146.11 37.2787C145.144 38.3968 144.475 39.7354 144.159 41.1743C143.844 42.6131 143.893 44.107 144.303 45.5222" fill="#2F2E41"/>
<path id="Vector 10" d="M166.746 20.1004C159.231 12.5361 150.136 6.69885 140.102 2.99962C133.66 0.631373 126.65 -0.83189 119.917 0.513071C113.183 1.85804 106.814 6.48135 104.936 13.0386C103.4 18.4005 104.986 24.1737 107.37 29.2211C109.753 34.2686 112.936 38.9491 114.865 44.185C116.831 49.5272 117.422 55.2727 116.585 60.8995C115.747 66.5263 113.508 71.8564 110.067 76.4059C106.628 80.9553 102.098 84.5802 96.8889 86.9515C91.6797 89.3226 85.9564 90.3651 80.2383 89.984C86.8545 90.8646 92.9531 93.9504 99.4202 95.593C105.887 97.2351 113.52 97.1238 118.326 92.5258C123.411 87.6607 123.513 79.7505 123.267 72.7448C122.901 62.3308 122.536 51.9167 122.17 41.5027C121.984 36.1917 121.825 30.7105 123.754 25.7535C125.684 20.7964 130.27 16.4557 135.625 16.5009C139.683 16.535 143.275 18.9748 146.529 21.381C149.783 23.7871 153.228 26.3542 157.27 26.7121C161.312 27.07 165.927 24.1012 165.625 20.0847" fill="#2F2E41"/>
</g>
<g id="arms">
<path id="Vector 11" d="M230.117 191.082L215.64 141.272C215.64 141.272 212.729 123.94 209.818 107.57C206.908 91.1999 196.235 93.1258 196.235 93.1258L194.295 94.0887V120.088L196.235 144.161L215.606 197.03C215.036 198.863 215.002 200.82 215.51 202.671C216.018 204.523 217.048 206.192 218.476 207.485C219.905 208.779 221.675 209.641 223.579 209.973C225.483 210.305 227.443 210.093 229.23 209.36C231.017 208.627 232.557 207.405 233.671 205.836C234.783 204.267 235.424 202.417 235.517 200.5C235.61 198.583 235.152 196.679 234.195 195.012C233.239 193.344 231.824 191.981 230.117 191.082Z" fill="#A0616A"/>
<path id="Vector 12" d="M132.201 95.052C132.201 95.052 121.528 93.1258 118.618 109.496C115.708 125.865 112.796 143.198 112.796 143.198L98.3199 193.007C96.614 193.908 95.2012 195.27 94.2465 196.937C93.2917 198.604 92.8345 200.506 92.928 202.421C93.0215 204.336 93.6619 206.186 94.7746 207.753C95.8872 209.32 97.4262 210.541 99.2116 211.273C100.997 212.005 102.956 212.218 104.858 211.886C106.762 211.555 108.53 210.694 109.957 209.402C111.386 208.11 112.414 206.442 112.922 204.593C113.431 202.744 113.4 200.788 112.83 198.956L132.201 146.087L134.142 122.013V98.1678C134.142 97.5203 133.96 96.8861 133.618 96.3365C133.275 95.786 132.785 95.341 132.201 95.052Z" fill="#A0616A"/>
</g>
<g id="sloganText">
<path id="At" d="M263.834 76L255.836 55.5654H230.084L222.174 76H214.615L240.016 11.4883H246.3L271.568 76H263.834ZM253.507 48.8418L246.036 28.9346C245.069 26.415 244.073 23.3242 243.048 19.6621C242.403 22.4746 241.48 25.5654 240.279 28.9346L232.721 48.8418H253.507ZM294.859 70.8584C296.148 70.8584 297.394 70.7705 298.595 70.5947C299.796 70.3896 300.748 70.1846 301.451 69.9795V75.5605C300.66 75.9414 299.488 76.249 297.936 76.4834C296.412 76.7471 295.035 76.8789 293.805 76.8789C284.488 76.8789 279.83 71.9717 279.83 62.1572V33.5049H272.931V29.9893L279.83 26.957L282.906 16.6738H287.125V27.8359H301.1V33.5049H287.125V61.8496C287.125 64.75 287.813 66.9766 289.19 68.5293C290.567 70.082 292.457 70.8584 294.859 70.8584Z" fill="black"/>
<path id="Be" d="M10.3848 11.752H28.5342C37.0596 11.752 43.2266 13.0264 47.0352 15.5752C50.8438 18.124 52.748 22.1523 52.748 27.6602C52.748 31.4688 51.6787 34.6182 49.54 37.1084C47.4307 39.5693 44.3398 41.166 40.2676 41.8984V42.3379C50.0234 44.0078 54.9014 49.1348 54.9014 57.7188C54.9014 63.4609 52.9531 67.9434 49.0566 71.166C45.1895 74.3887 39.7695 76 32.7969 76H10.3848V11.752ZM17.8555 39.2617H30.1602C35.4336 39.2617 39.2275 38.4414 41.542 36.8008C43.8564 35.1309 45.0137 32.333 45.0137 28.4072C45.0137 24.8037 43.7246 22.2109 41.1465 20.6289C38.5684 19.0176 34.4668 18.2119 28.8418 18.2119H17.8555V39.2617ZM17.8555 45.5898V69.6279H31.2588C36.4443 69.6279 40.3408 68.6318 42.9482 66.6396C45.585 64.6182 46.9033 61.4688 46.9033 57.1914C46.9033 53.207 45.5557 50.2773 42.8604 48.4023C40.1943 46.5273 36.1221 45.5898 30.6436 45.5898H17.8555ZM87.9922 76.8789C80.873 76.8789 75.248 74.7109 71.1172 70.375C67.0156 66.0391 64.9648 60.0186 64.9648 52.3135C64.9648 44.5498 66.8691 38.3828 70.6777 33.8125C74.5156 29.2422 79.6572 26.957 86.1025 26.957C92.1377 26.957 96.9131 28.9492 100.429 32.9336C103.944 36.8887 105.702 42.1182 105.702 48.6221V53.2363H72.5234C72.6699 58.8906 74.0908 63.1826 76.7861 66.1123C79.5107 69.042 83.334 70.5068 88.2559 70.5068C93.4414 70.5068 98.5684 69.4229 103.637 67.2549V73.7588C101.059 74.8721 98.6123 75.6631 96.2979 76.1318C94.0127 76.6299 91.2441 76.8789 87.9922 76.8789ZM86.0146 33.0654C82.1475 33.0654 79.0566 34.3252 76.7422 36.8447C74.457 39.3643 73.1094 42.8506 72.6992 47.3037H97.8799C97.8799 42.7041 96.8545 39.1885 94.8037 36.7568C92.7529 34.2959 89.8232 33.0654 86.0146 33.0654Z" fill="black"/>
<path id="PEACE" d="M68.7983 138.943C68.7983 145.809 66.4481 151.097 61.7476 154.808C57.078 158.488 50.3828 160.328 41.6621 160.328H33.6836V187H25.7979V119.183H43.3784C60.325 119.183 68.7983 125.77 68.7983 138.943ZM33.6836 153.555H40.7808C47.7697 153.555 52.8258 152.426 55.9492 150.169C59.0726 147.911 60.6343 144.293 60.6343 139.314C60.6343 134.83 59.1654 131.491 56.2275 129.295C53.2897 127.099 48.7129 126.001 42.4971 126.001H33.6836V153.555ZM120.844 187H83.0391V119.183H120.844V126.187H90.9248V148.035H119.035V154.993H90.9248V179.949H120.844V187ZM178.549 187L170.107 165.43H142.924L134.575 187H126.596L153.408 118.904H160.041L186.713 187H178.549ZM167.648 158.333L159.763 137.32C158.742 134.66 157.691 131.398 156.608 127.532C155.928 130.501 154.954 133.764 153.686 137.32L145.708 158.333H167.648ZM225.075 125.259C217.622 125.259 211.731 127.749 207.402 132.728C203.103 137.675 200.954 144.463 200.954 153.091C200.954 161.967 203.026 168.832 207.17 173.687C211.345 178.511 217.282 180.923 224.982 180.923C229.714 180.923 235.11 180.073 241.171 178.372V185.284C236.471 187.046 230.673 187.928 223.776 187.928C213.788 187.928 206.072 184.897 200.629 178.836C195.218 172.775 192.512 164.162 192.512 152.999C192.512 146.01 193.811 139.887 196.408 134.629C199.037 129.372 202.81 125.321 207.727 122.476C212.674 119.631 218.488 118.208 225.168 118.208C232.281 118.208 238.496 119.507 243.815 122.105L240.476 128.877C235.342 126.465 230.209 125.259 225.075 125.259ZM293.774 187H255.969V119.183H293.774V126.187H263.854V148.035H291.965V154.993H263.854V179.949H293.774V187Z" fill="black"/>
</g>
</g>
</svg>
