<svg width="588" height="400" viewBox="0 0 588 400" fill="none" xmlns="http://www.w3.org/2000/svg">
<g id="hotAirBalloon">
<g id="cloudRight">
<path id="Vector" d="M532.24 34H351.3C345.799 34 341.34 38.4592 341.34 43.96V45.73C341.34 51.2308 345.799 55.69 351.3 55.69H532.24C537.741 55.69 542.2 51.2308 542.2 45.73V43.96C542.2 38.4592 537.741 34 532.24 34Z" fill="#F2F2F2"/>
<path id="Vector_2" d="M577.23 52.48H396.29C390.789 52.48 386.33 56.9393 386.33 62.44V64.21C386.33 69.7108 390.789 74.17 396.29 74.17H577.23C582.731 74.17 587.19 69.7108 587.19 64.21V62.44C587.19 56.9393 582.731 52.48 577.23 52.48Z" fill="#F2F2F2"/>
<path id="Vector_3" d="M500.9 68.55H319.96C314.459 68.55 310 73.0093 310 78.51V80.2801C310 85.7808 314.459 90.2401 319.96 90.2401H500.9C506.401 90.2401 510.86 85.7808 510.86 80.2801V78.51C510.86 73.0093 506.401 68.55 500.9 68.55Z" fill="#F2F2F2"/>
</g>
<g id="cloudLeft">
<path id="Vector_4" d="M222.23 0H41.29C35.7892 0 31.33 4.45924 31.33 9.96V11.73C31.33 17.2308 35.7892 21.69 41.29 21.69H222.23C227.731 21.69 232.19 17.2308 232.19 11.73V9.96C232.19 4.45924 227.731 0 222.23 0Z" fill="#F2F2F2"/>
<path id="Vector_5" d="M267.23 18.48H86.29C80.7892 18.48 76.33 22.9393 76.33 28.44V30.21C76.33 35.7108 80.7892 40.17 86.29 40.17H267.23C272.731 40.17 277.19 35.7108 277.19 30.21V28.44C277.19 22.9393 272.731 18.48 267.23 18.48Z" fill="#F2F2F2"/>
<path id="Vector_6" d="M190.9 34.55H9.96C4.45925 34.55 0 39.0093 0 44.5101V46.28C0 51.7808 4.45925 56.2401 9.96 56.2401H190.9C196.401 56.2401 200.86 51.7808 200.86 46.28V44.5101C200.86 39.0093 196.401 34.55 190.9 34.55Z" fill="#F2F2F2"/>
</g>
<g id="airBalloon">
<path id="Vector_7" d="M314.53 345.45L304.89 291.61L335.42 290.12V345.45H356.31L377.2 285.99" stroke="#B3B3B3" stroke-miterlimit="10"/>
<path id="Vector_8" d="M349.9 339.82H320.94C305.863 339.82 293.64 352.043 293.64 367.12V371.98C293.64 387.057 305.863 399.28 320.94 399.28H349.9C364.977 399.28 377.2 387.057 377.2 371.98V367.12C377.2 352.043 364.977 339.82 349.9 339.82Z" fill="#63D4FF"/>
<path id="Vector_9" opacity="0.05" d="M348.28 339.82H324.18C316.302 339.844 308.754 342.984 303.184 348.554C297.614 354.124 294.474 361.672 294.45 369.55V369.55C294.45 370.23 294.45 370.89 294.53 371.55C295.06 364.04 298.411 357.008 303.911 351.867C309.411 346.725 316.651 343.854 324.18 343.83H348.28C355.809 343.854 363.05 346.725 368.549 351.867C374.049 357.008 377.4 364.04 377.93 371.55C377.93 370.89 378.01 370.22 378.01 369.55C377.986 361.672 374.846 354.124 369.276 348.554C363.706 342.984 356.158 339.844 348.28 339.82V339.82Z" fill="black"/>
<path id="Vector_10" d="M456.51 178.91C456.51 244.36 401.84 297.41 343.62 297.41C285.4 297.41 225.74 244.36 225.74 178.91C225.74 113.46 285.42 60.45 343.63 60.45C401.84 60.45 456.51 113.45 456.51 178.91Z" fill="#63D4FF"/>
<path id="Vector_11" d="M351.73 301.57H325.54V310.72H351.73V301.57Z" fill="#63D4FF"/>
<g id="Group" opacity="0.2">
<path id="Vector_12" opacity="0.2" d="M343.63 60C342.24 60 340.86 60 339.47 60.1C396.1 62.55 448.2 114.61 448.2 178.5C448.2 242.39 396.1 294.45 339.51 296.9C340.9 296.96 342.29 297 343.67 297C401.88 297 456.56 243.95 456.56 178.5C456.56 113.05 401.84 60 343.63 60Z" fill="black"/>
</g>
<g id="Group_2" opacity="0.2">
<path id="Vector_13" opacity="0.2" d="M232.41 178.91C232.41 114.4 290.41 61.91 347.79 60.45C346.96 60.45 346.13 60.45 345.3 60.45C287.09 60.45 227.42 113.5 227.42 178.95C227.42 244.4 287.08 297.45 345.29 297.45C346.12 297.45 346.95 297.45 347.78 297.45C290.38 295.89 232.41 243.45 232.41 178.91Z" fill="white"/>
</g>
<path id="Vector_14" d="M372.27 276.52H297.01V301.05H372.27V276.52Z" fill="#63D4FF"/>
<path id="Vector_15" opacity="0.2" d="M302.26 69.04C302.26 69.04 212.87 171.22 302.26 288.78L331.78 288.68C331.78 288.68 250.29 191.56 328.04 61.68L313.51 64.99L302.26 69.04Z" fill="white"/>
<path id="Vector_16" opacity="0.2" d="M380.01 67.45C380.01 67.45 469.4 171.19 380.01 288.75L350.49 288.65C350.49 288.65 431.98 190.65 354.23 60.8L368.78 63.71L380.01 67.45Z" fill="white"/>
</g>
<g id="cloudBottom">
<path id="Vector_17" d="M315.9 246H134.96C129.459 246 125 250.459 125 255.96V257.73C125 263.231 129.459 267.69 134.96 267.69H315.9C321.401 267.69 325.86 263.231 325.86 257.73V255.96C325.86 250.459 321.401 246 315.9 246Z" fill="#F2F2F2"/>
<path id="Vector_18" d="M279.9 264H98.96C93.4592 264 89 268.459 89 273.96V275.73C89 281.231 93.4592 285.69 98.96 285.69H279.9C285.401 285.69 289.86 281.231 289.86 275.73V273.96C289.86 268.459 285.401 264 279.9 264Z" fill="#F2F2F2"/>
<path id="Vector_19" d="M346.9 280H165.96C160.459 280 156 284.459 156 289.96V291.73C156 297.231 160.459 301.69 165.96 301.69H346.9C352.401 301.69 356.86 297.231 356.86 291.73V289.96C356.86 284.459 352.401 280 346.9 280Z" fill="#F2F2F2"/>
</g>
</g>
</svg>
